<svg width="258" height="210" viewBox="0 0 258 210" fill="none" xmlns="http://www.w3.org/2000/svg">
<path id="Fill 4" fill-rule="evenodd" clip-rule="evenodd" d="M225.041 225.012C197.795 283.439 144.649 293.934 75.5577 261.716C15.6416 233.777 -10.1752 197.038 4.45627 165.661C12.1185 149.229 26.9953 143.837 43.4176 151.495C57.9155 158.255 59.6251 168.459 69.7195 179.63C75.6166 185.896 83.6712 192.595 97.6778 199.126C121.364 210.172 131.799 207.98 135.173 200.745C139.005 192.527 132.872 186.724 124.85 181.236C110.272 170.897 80.0785 157.415 61.0393 132.671C42.6947 107.648 47.3923 78.6796 58.6497 54.538C89.7267 -12.1069 152.586 -6.89731 205.733 17.8853C257.927 42.224 280.373 78.5656 267.311 106.577C260.105 122.031 245.005 127.912 228.582 120.254C217.957 115.299 213.17 106.608 204.358 97.783C199.199 92.4548 192.595 86.4319 180.987 81.0191C153.448 68.1775 143.799 72.4871 140.417 79.7398C137.043 86.9755 140.266 91.4216 148.773 97.1607C166.271 108.836 202.054 126.697 218.655 149.134C240.174 177.405 236.527 200.379 225.041 225.012Z" fill="white" fill-opacity="0.2"/>
</svg>
